<svg width="220" height="48" viewBox="0 0 220 48" fill="none" xmlns="http://www.w3.org/2000/svg">
<g clip-path="url(#clip0_1277_4634)">
<path d="M143.568 30.056L140.079 21.953L136.609 30.056L136.367 30.607H143.792L143.568 30.056ZM142.417 15.9757L152.972 39.9999H147.825L145.651 34.9734H134.544L134.387 35.3186L132.346 39.9999H127.337L137.996 15.8364H142.278L142.417 15.9757ZM176.664 32.4784L171.171 15.8425H167.162L161.669 32.4784L156.346 15.8425H151.131L159.561 40.006H163.613L169.106 24.1332L174.599 40.006H178.692L187.104 15.8425H182.011L176.664 32.4784ZM195.904 29.626H204.836V25.2111H195.904V20.2452H208.857V15.8606H191.071V40.006H209.33V35.6033H195.904V29.6078V29.626ZM215.162 15.8606V39.9878H220.007V15.8425L215.162 15.8606ZM92.3215 25.5805H81.2511V15.8425H76.3457V40.0241H81.2511V30.1952H92.3215V40.0241H97.2269V15.8425H92.3215V25.5866V25.5805ZM119.955 15.8364H124.854V29.4806C124.854 36.4087 121.039 40.3815 114.39 40.3815C107.74 40.3815 104.028 36.4753 104.028 29.6744V15.8546H108.933V29.517C108.933 33.5563 110.92 35.7183 114.462 35.7183C118.005 35.7183 119.955 33.6108 119.955 29.6623V15.8425V15.8364Z" fill="white"/>
<path d="M36.9147 37.4503C36.9533 37.4758 36.9986 37.4895 37.0449 37.4895C37.0912 37.4895 37.1365 37.4758 37.1751 37.4503C39.973 36.0514 51.6308 30.1286 56.4514 25.4109C58.3255 23.7829 59.4793 21.4795 59.6611 19.0037C60.0063 13.5533 54.4953 8.44805 54.4953 8.44805C47.5158 17.2888 41.5856 26.9095 36.8239 37.1172C36.8103 37.1717 36.811 37.2287 36.8259 37.2828C36.8407 37.3368 36.8692 37.3862 36.9086 37.4261L36.9147 37.4503ZM63.7005 24.7085C63.7005 24.7085 47.0828 33.6411 38.4832 39.4427C38.439 39.4725 38.4053 39.5155 38.3868 39.5654C38.3684 39.6154 38.3661 39.67 38.3803 39.7213C38.3803 39.7213 38.465 39.8788 38.5862 39.8788C41.6626 39.8788 53.3023 39.8788 53.6111 39.8424C54.7667 39.759 55.9025 39.4975 56.9783 39.0673C59.7935 37.9616 62.0546 35.7833 63.2644 33.0113C64.4149 30.3801 64.5678 27.4199 63.6944 24.6842L63.7005 24.7085ZM38.9192 41.3322C38.8729 41.3411 38.8289 41.3597 38.7903 41.3869C38.7516 41.414 38.7192 41.4491 38.6952 41.4897C38.6834 41.5352 38.6833 41.5829 38.695 41.6284C38.7066 41.674 38.7296 41.7158 38.7618 41.7501C40.627 43.0945 46.3076 47.0673 49.057 47.8061C49.057 47.8061 54.1198 49.5321 58.5044 41.9863L38.9374 41.3141L38.9192 41.3322ZM34.2924 35.8818C34.3434 35.9016 34.3999 35.9021 34.4512 35.8831C34.5026 35.8642 34.5452 35.8271 34.571 35.7789C36.4363 33.0839 44.9147 20.5056 46.6225 12.8689C46.6225 12.8689 47.5551 9.17477 46.6588 6.64941C46.188 5.17251 45.347 3.84066 44.2159 2.78063C43.0849 1.72059 41.7014 0.967628 40.1971 0.593395C40.1971 0.593395 38.7133 0.211866 37.1206 -0.012207C37.1206 -0.012207 31.3189 7.44881 34.1471 35.6396C34.1416 35.6872 34.1523 35.7352 34.1776 35.7759C34.2029 35.8166 34.2413 35.8475 34.2864 35.8636L34.2924 35.8818ZM27.8064 0.00596029C26.9586 0.0725765 24.6634 0.611562 24.6634 0.611562C23.1691 0.993999 21.7968 1.75064 20.6758 2.81016C19.5548 3.86968 18.7221 5.1972 18.2561 6.66758C17.3053 9.62292 18.2561 12.8871 18.2561 12.8871C19.9821 20.554 28.4787 33.1808 30.3136 35.8273C30.4348 35.9666 30.5377 35.9121 30.5377 35.9121C30.5906 35.8968 30.6373 35.865 30.671 35.8215C30.7047 35.778 30.7238 35.7249 30.7254 35.6698C33.5597 7.47908 27.7883 0.0180657 27.7883 0.0180657L27.8064 0.00596029ZM26.5165 39.7456C26.6195 39.5881 26.4499 39.4549 26.4499 39.4549C17.8685 33.6532 1.21447 24.7387 1.21447 24.7387C0.664126 26.43 0.510999 28.2254 0.766972 29.9854C1.02294 31.7455 1.68113 33.4228 2.69042 34.8873C3.69972 36.3517 5.03296 37.5638 6.58663 38.4295C8.1403 39.2952 9.87259 39.7911 11.649 39.8788C11.9397 39.9333 23.2705 39.8788 26.3106 39.8788C26.3923 39.8664 26.466 39.823 26.5165 39.7577V39.7456ZM26.2258 41.5018C26.2066 41.4487 26.1711 41.4031 26.1243 41.3715C26.0774 41.34 26.0218 41.3241 25.9654 41.3262L6.41053 41.9984C8.5362 45.7834 12.1092 48.7145 15.8216 47.8182C18.3954 47.1763 24.1971 43.1187 26.1168 41.7622C26.2743 41.6411 26.2198 41.5381 26.2198 41.52L26.2258 41.5018ZM28.0366 37.4806C28.0708 37.4517 28.0946 37.4123 28.1044 37.3686C28.1143 37.3249 28.1096 37.2792 28.0911 37.2383C23.3372 26.9891 17.3981 17.3325 10.3954 8.46622C10.3954 8.46622 4.83597 13.7531 5.22961 19.0521C5.32269 20.2741 5.65567 21.4657 6.20953 22.5588C6.76338 23.652 7.52726 24.6253 8.45747 25.4231C13.3023 30.1528 25.057 36.1301 27.7822 37.4988C27.8262 37.5161 27.8743 37.5202 27.9206 37.5105C27.9669 37.5008 28.0093 37.4778 28.0426 37.4443" fill="white"/>
</g>
<defs>
<clipPath id="clip0_1277_4634">
<rect width="219.361" height="48" fill="white" transform="translate(0.638672)"/>
</clipPath>
</defs>
</svg>
