<svg width="143" height="48" viewBox="0 0 143 48" fill="none" xmlns="http://www.w3.org/2000/svg">
<path fill-rule="evenodd" clip-rule="evenodd" d="M14.7257 11.043V21.9161H16.8345H18.9434V11.043V0H16.8345H14.7257V11.043ZM9.90558 15.5605V26.3888H12.0144H14.1232V15.5605V4.61796H12.0144H9.90558V15.5605ZM19.7467 15.5676V26.4027H21.7969H23.8639L23.9204 15.5103L23.9768 4.61796H21.8618H19.7467V15.5676ZM5.08544 18.82V28.6189L7.04724 30.5727C8.12615 31.6473 9.07089 32.5265 9.14641 32.5265C9.22193 32.5265 9.26551 27.2636 9.24321 20.831L9.20265 9.13553L7.14404 9.07831L5.08544 9.02109V18.82ZM24.5669 20.8459V32.6197L26.6775 30.5169L28.7883 28.4139L28.7361 18.7746L28.6841 9.13553L26.6255 9.10381L24.5669 9.07209V20.8459ZM0.0644531 13.5C0.0644531 13.5 0.0644531 16.2438 0.0644531 19.083V24.2451L1.72298 25.7255C2.6352 26.5396 3.58416 27.3779 3.8318 27.5883L4.28208 27.9708V20.8322V13.5221L2.06445 13.5C0.980121 13.4869 0.0644531 13.5 0.0644531 13.5ZM29.5009 13.5V27.9086C29.5009 27.9086 30.5107 27.1179 31.6057 26.1517L33.5966 24.3949L33.6006 19.016V13.5H31.5645H29.5009ZM29.387 42.4475V47.7859H30.9937H32.6004V45.9788V44.1718L35.8641 44.1566C39.5637 44.1393 40.3101 43.9664 40.9855 42.9713C41.3598 42.4198 41.4374 42.0331 41.4374 40.7188C41.4374 38.8728 41.1335 38.1203 40.1787 37.6019C39.6194 37.2981 38.8267 37.2394 34.4582 37.1792L29.387 37.1089V42.4475ZM45.2533 37.3704C44.3182 37.6476 43.6898 38.2622 43.4466 39.1374C43.3369 39.5322 43.2467 41.1199 43.2463 42.666C43.2455 45.7712 43.4413 46.4822 44.5146 47.2697C45.0462 47.6596 45.3489 47.6855 49.3701 47.6855C53.4052 47.6855 53.6922 47.6608 54.2258 47.2658C55.2722 46.492 55.3963 45.9804 55.3901 42.4652C55.3814 37.3959 55.2501 37.275 49.6718 37.2073C47.5457 37.1814 45.6556 37.2513 45.2533 37.3704ZM59.0108 37.4384C57.2942 38.0622 57.0008 38.9812 57.1436 43.285C57.244 46.3053 57.421 46.7699 58.7238 47.4341C59.7455 47.9549 66.7114 47.9549 67.7331 47.4341C68.7843 46.8984 69.1622 46.2417 69.211 44.8665L69.2536 43.6699H67.6487H66.0438L65.9406 44.2668C65.7978 45.0916 65.1314 45.3701 63.2917 45.3735C61.5601 45.3769 60.8403 45.1783 60.6292 44.639C60.5502 44.4372 60.4934 43.4201 60.503 42.3788C60.5265 39.8157 60.5878 39.7546 63.1427 39.7546C64.2212 39.7546 65.2421 39.8078 65.4116 39.8727C65.5809 39.9377 65.8225 40.3028 65.9484 40.684L66.1772 41.3771L67.7154 41.3187L69.2536 41.2605L69.2289 40.2457C69.198 38.9772 68.7351 38.0588 67.8945 37.5996C66.9982 37.1099 60.2512 36.9875 59.0108 37.4384ZM71.0989 37.4197C71.0375 37.5798 70.9784 39.9777 70.9678 42.7485L70.9483 47.7859H72.6617H74.375V45.7947C74.375 44.6714 74.461 43.7745 74.5723 43.7367C74.6807 43.7 75.9008 43.6976 77.2836 43.7315L79.7977 43.7931V45.7895V47.7859H81.5082H83.2186L83.1652 42.5154L83.1115 37.2449H81.5048H79.8981L79.883 39.2187L79.868 41.1924L77.198 41.186C75.7297 41.1824 74.5022 41.1525 74.4702 41.1195C74.4383 41.0866 74.3812 40.2014 74.3433 39.1523L74.2746 37.2449L72.7426 37.1866C71.5504 37.1415 71.1859 37.1931 71.0989 37.4197ZM87.1283 37.331C85.1758 37.802 84.9191 38.3988 84.9191 42.4652C84.9191 45.9782 85.0444 46.4928 86.0882 47.2658C86.6228 47.662 86.9474 47.6891 91.8623 47.7479L97.0699 47.8106V46.5934V45.3765H93.2634C90.782 45.3765 89.2771 45.2946 88.9405 45.1414C88.4691 44.9265 88.0446 44.0925 88.2844 43.8526C88.3392 43.7978 90.3158 43.7343 92.6767 43.7114L96.9695 43.6699V42.4652V41.2605L93.1535 41.2199C91.0547 41.1976 89.0889 41.175 88.7852 41.1697C88.1309 41.1583 88.0293 40.6035 88.5886 40.0974C88.8847 39.8295 89.6167 39.7655 92.9569 39.7149L96.9695 39.6542L97.0293 38.3994L97.089 37.1445L92.41 37.165C89.8364 37.1764 87.4597 37.2511 87.1283 37.331ZM106.108 38.1484V39.1523L103.246 39.1531C100.101 39.1539 99.4954 39.3332 98.7383 40.4885C98.2026 41.3057 98.2327 43.5482 98.7895 44.2945C99.7378 45.5662 100.059 45.6716 103.21 45.7467L106.108 45.8158V46.8008V47.7859H107.704H109.3L109.361 46.7516L109.421 45.7176L111.955 45.7401C114.199 45.76 114.59 45.7116 115.365 45.3185C116.552 44.7167 117.053 43.81 117.018 42.3228C116.986 40.9298 116.447 39.9414 115.463 39.4747C114.943 39.2278 114.144 39.1523 112.052 39.1523H109.321V38.1484V37.1445H107.714H106.108V38.1484ZM116.953 38.461V39.7775L119.012 39.7392L121.07 39.7008L121.125 43.7433L121.179 47.7859H122.882H124.585V43.7702V39.7546L126.643 39.7309C127.776 39.7177 128.77 39.7177 128.853 39.7309C128.936 39.744 129.003 39.1673 129.003 38.4496V37.1445H122.978H116.953V38.461ZM130.409 42.4652V47.7859L135.28 47.7815C139.606 47.7776 140.243 47.7351 140.979 47.4008C142.08 46.9008 142.544 45.7702 142.424 43.8815C142.331 42.4238 141.915 41.6635 140.935 41.1621C140.418 40.8977 138.136 40.7636 134.075 40.7591C133.64 40.7585 133.623 40.6915 133.623 38.9515V37.1445H132.016H130.409V42.4652ZM37.9829 39.9956C38.3209 40.3335 38.283 41.0726 37.9084 41.447C37.6554 41.7 37.098 41.7624 35.0967 41.7624H32.6004V40.7585V39.7546H35.1712C36.9028 39.7546 37.8207 39.8333 37.9829 39.9956ZM51.6802 39.9508C51.8981 40.0881 52.0091 40.6443 52.0819 41.9592C52.2046 44.1812 52.0375 44.9253 51.358 45.1837C50.7111 45.4295 48.043 45.4345 47.4025 45.1912C46.7239 44.9332 46.6202 44.5461 46.6481 42.3734C46.6811 39.7988 46.7277 39.7536 49.3514 39.7576C50.4665 39.7594 51.5145 39.8462 51.6802 39.9508ZM106.108 42.4652V43.5695H104.314C102.362 43.5695 101.89 43.3546 101.89 42.4652C101.89 41.5757 102.362 41.3609 104.314 41.3609H106.108V42.4652ZM113.223 41.6763C113.397 41.85 113.539 42.205 113.539 42.4652C113.539 43.3546 113.067 43.5695 111.114 43.5695H109.321V42.4652V41.3609H111.114C112.477 41.3609 112.983 41.4368 113.223 41.6763ZM139.128 44.0152C139.279 44.4473 139.243 44.6463 138.95 44.9689C138.618 45.3365 138.339 45.3765 136.102 45.3765H133.623V44.3858C133.623 43.2049 133.593 43.2143 136.832 43.3687C138.905 43.4675 138.94 43.4773 139.128 44.0152Z" fill="white"/>
<path d="M9.90558 48V38.6732V27.7306H12.0144H14.1232V38.6732V48H12.0144H9.90558Z" fill="white"/>
<path d="M19.6463 48V38.6732V27.7306H21.7551H23.8639V38.6732V48H21.7551H19.6463Z" fill="white"/>
<path d="M14.7257 48V38.6732V23.2579H16.8345H18.9434V38.6732V48H16.8345H14.7257Z" fill="white"/>
</svg>
