<svg width="195" height="48" viewBox="0 0 195 48" fill="none" xmlns="http://www.w3.org/2000/svg">
<g clip-path="url(#clip0_1277_4589)">
<path d="M26.9653 14.7773C27.6735 15.6905 28.2731 16.6825 28.7518 17.7336L15.1716 27.7174L9.49609 24.1692V19.9006L15.1716 23.4487L26.9653 14.7773Z" fill="white"/>
<path d="M3.70398 23.868C3.70398 23.6765 3.70866 23.4862 3.71803 23.297L0.278498 23.1289C0.266791 23.3741 0.25977 23.6216 0.25977 23.8715C0.258306 25.8235 0.643289 27.7565 1.39264 29.5596C2.14199 31.3629 3.24095 33.0008 4.62649 34.3795L7.06624 31.9475C5.9997 30.8881 5.15361 29.6289 4.5766 28.2424C3.99959 26.8558 3.70303 25.3692 3.70398 23.868Z" fill="white"/>
<path d="M15.1692 12.4341C15.3611 12.4341 15.5519 12.4411 15.7416 12.4504L15.9137 9.01899C15.6671 9.00731 15.4189 9.00148 15.1692 9.00148C13.211 8.99909 11.2717 9.38249 9.46259 10.1296C7.65345 10.8768 6.01012 11.973 4.62695 13.3553L7.0667 15.7885C8.12898 14.7245 9.39168 13.8803 10.7822 13.3047C12.1727 12.729 13.6636 12.4331 15.1692 12.4341Z" fill="white"/>
<path d="M15.1676 35.3014C14.9756 35.3014 14.7847 35.3014 14.594 35.2862L14.4219 38.7165C14.6693 38.729 14.9179 38.7352 15.1676 38.7352C17.1249 38.7372 19.0633 38.3536 20.8715 37.6062C22.6796 36.8589 24.3219 35.7625 25.704 34.3802L23.2689 31.9482C22.2064 33.0117 20.9439 33.8553 19.5536 34.4308C18.1634 35.0062 16.6728 35.3022 15.1676 35.3014Z" fill="white"/>
<path d="M21.6311 14.4292L24.5297 12.2984C21.8803 10.1588 18.5732 8.99406 15.1641 9.00002V12.4338C17.4726 12.4309 19.7275 13.1267 21.6311 14.4292Z" fill="white"/>
<path d="M30.0772 23.8675C30.079 22.9742 30.0007 22.0825 29.843 21.2031L26.6341 23.5616C26.6341 23.6632 26.6341 23.7648 26.6341 23.8675C26.635 25.465 26.2992 27.0449 25.6486 28.5048C24.998 29.9646 24.047 31.2718 22.8574 32.3416L25.1719 34.8928C26.7185 33.5003 27.9544 31.7993 28.7994 29.9C29.6445 28.0007 30.0798 25.9454 30.0772 23.8675Z" fill="white"/>
<path d="M15.1683 35.3017C13.5663 35.3022 11.982 34.9672 10.5181 34.3184C9.05418 33.6696 7.74322 32.7213 6.67009 31.5352L4.11328 33.8422C5.5093 35.3849 7.21483 36.6176 9.1193 37.4606C11.0238 38.3035 13.0846 38.7379 15.1683 38.7354V35.3017Z" fill="white"/>
<path d="M7.48068 15.3934L5.16737 12.8423C3.62036 14.2344 2.38405 15.9354 1.5386 17.8347C0.693154 19.734 0.257461 21.7894 0.259775 23.8675H3.70399C3.70327 22.27 4.03911 20.6901 4.6897 19.2303C5.3403 17.7705 6.29116 16.4633 7.48068 15.3934Z" fill="white"/>
<path d="M86.2939 17.5025L90.5596 14.4038H76.2832V33.0245H90.5596V29.9258H80.3568V25.1561H89.0602V22.0573H80.3568V17.5025H86.2939Z" fill="white"/>
<path d="M66.6761 21.6577H61.7197V17.5012H69.63L73.8931 14.3931H57.6484V33.0138H66.1518C70.9192 33.0138 73.6553 30.8832 73.6553 27.1676C73.6553 23.613 71.1771 21.6577 66.6761 21.6577ZM65.9685 29.9141H61.7197V24.7545H65.9685C68.547 24.7545 69.756 25.6192 69.756 27.3343C69.756 29.0494 68.4696 29.9141 65.9685 29.9141Z" fill="white"/>
<path d="M101.054 14.4009H93.2832V33.0215H97.3563V27.7466H101.054C106.012 27.7466 109.079 25.1742 109.079 21.0638C109.079 16.9536 106.012 14.4009 101.054 14.4009ZM100.968 24.6455H97.3563V17.502H100.968C103.576 17.502 105.016 18.7713 105.016 21.0752C105.016 23.3791 103.576 24.6455 100.968 24.6455Z" fill="white"/>
<path d="M51.5367 28.6274C50.4845 29.1892 49.3056 29.4801 48.1092 29.4732C44.5282 29.4732 41.9303 26.9524 41.9303 23.4812C41.9303 20.01 44.5282 17.4837 48.1092 17.4837C49.4006 17.462 50.6652 17.8482 51.7183 18.5857L54.5675 16.5167L54.3748 16.3817C52.7127 14.9409 50.492 14.1777 47.95 14.1777C45.1929 14.1777 42.6929 15.0924 40.9079 16.7564C40.0054 17.6131 39.2916 18.6441 38.811 19.785C38.3304 20.926 38.0933 22.1522 38.1146 23.3875C38.0955 24.6353 38.3315 25.8741 38.8086 27.03C39.2856 28.186 39.9939 29.2351 40.8912 30.1151C42.6845 31.8452 45.179 32.7984 47.9165 32.7984C50.7769 32.7984 53.277 31.8149 54.9698 30.0242L52.4194 28.1509L51.5367 28.6274Z" fill="white"/>
<path d="M125.23 21.6577H120.275V17.5012H130.922V14.3931H116.201V33.0138H124.694C129.461 33.0138 132.197 30.8832 132.197 27.1676C132.208 23.613 129.73 21.6577 125.23 21.6577ZM124.522 29.9141H120.275V24.7545H124.522C127.1 24.7545 128.309 25.6192 128.309 27.3343C128.309 29.0494 127.034 29.9141 124.522 29.9141Z" fill="white"/>
<path d="M178.506 32.9874H174.377V14.3667H178.506V22.1875H180.754L186.823 14.3667H191.503L184.304 23.2248L192.664 32.9874H187.185L181.04 25.6641H178.506V32.9874Z" fill="white"/>
<path d="M147.199 29.4486H138.463L136.982 33.0645H132.588L140.781 14.4438H145.175L153.235 33.0645H148.68L147.199 29.4486ZM145.831 26.0747L142.857 18.8428L139.867 26.0747H145.831Z" fill="white"/>
<path d="M158.795 14.4438V22.2195H167.34V14.4438H171.598V33.0645H167.34V25.7273H158.795V33.0645H154.537V14.4438H158.795Z" fill="white"/>
</g>
<defs>
<clipPath id="clip0_1277_4589">
<rect width="194" height="48" fill="white" transform="translate(0.259766)"/>
</clipPath>
</defs>
</svg>
