<svg width="203" height="48" viewBox="0 0 203 48" fill="none" xmlns="http://www.w3.org/2000/svg">
<path fill-rule="evenodd" clip-rule="evenodd" d="M192.894 9.93278V15.5285C189.995 14.4341 187.414 13.8808 185.155 13.8808C183.817 13.8808 182.752 14.1286 181.951 14.6076C181.149 15.0908 180.74 15.6855 180.74 16.3875C180.74 17.3208 181.645 18.1509 183.466 18.8943L188.727 21.4547C192.981 23.4824 195.091 26.1749 195.091 29.5572C195.091 32.3695 193.972 34.612 191.713 36.2721C189.471 37.9488 186.452 38.7789 182.694 38.7789C180.959 38.7789 179.403 38.7046 178.019 38.5476C176.636 38.399 175.046 38.0933 173.282 37.6556V31.7997C176.516 32.8941 179.46 33.4474 182.112 33.4474C185.275 33.4474 186.848 32.5306 186.848 30.6805C186.848 29.7596 186.204 29.0162 184.895 28.4339L179.051 25.9437C176.896 24.9691 175.293 23.788 174.244 22.388C173.212 20.9757 172.688 19.3568 172.688 17.5067C172.688 14.9173 173.778 12.8318 175.933 11.246C178.106 9.67253 180.988 8.88379 184.573 8.88379C185.737 8.88379 187.08 8.98699 188.566 9.17697C190.065 9.37934 191.507 9.62712 192.894 9.93278Z" fill="white"/>
<path fill-rule="evenodd" clip-rule="evenodd" d="M27.3916 9.93278V15.5285C24.4925 14.4341 21.9156 13.8808 19.6566 13.8808C18.3145 13.8808 17.2532 14.1286 16.452 14.6076C15.6508 15.0908 15.242 15.6855 15.242 16.3875C15.242 17.3208 16.1588 18.1509 17.98 18.8943L23.2413 21.4547C27.4783 23.4824 29.5928 26.1749 29.5928 29.5572C29.5928 32.3695 28.4695 34.612 26.2271 36.2721C23.9681 37.9488 20.9658 38.7789 17.1954 38.7789C15.4609 38.7789 13.8998 38.7046 12.5163 38.5476C11.1329 38.399 9.55944 38.0933 7.78373 37.6556V31.7997C11.0297 32.8941 13.9742 33.4474 16.6089 33.4474C19.7723 33.4474 21.3457 32.5306 21.3457 30.6805C21.3457 29.7596 20.7056 29.0162 19.4088 28.4339L13.5653 25.9437C11.393 24.9691 9.79071 23.788 8.75832 22.388C7.70933 20.9757 7.19727 19.3568 7.19727 17.5067C7.19727 14.9173 8.27928 12.8318 10.4473 11.246C12.6031 9.67253 15.4897 8.88379 19.0744 8.88379C20.2513 8.88379 21.577 8.98699 23.0802 9.17697C24.5669 9.37934 26.0082 9.62712 27.3916 9.93278Z" fill="white"/>
<path fill-rule="evenodd" clip-rule="evenodd" d="M33.4219 9.4082H41.9911V38.2544H33.4219V9.4082Z" fill="white"/>
<path fill-rule="evenodd" clip-rule="evenodd" d="M69.5981 9.4082V14.7398H56.8661V21.1366H67.9091V25.9436H56.8661V32.6586H69.8583V38.2544H48.6191V9.4082H69.5981Z" fill="white"/>
<path fill-rule="evenodd" clip-rule="evenodd" d="M109.601 9.4082V38.2544H101.602V19.2287L93.3014 38.5187H88.3623L80.3795 19.2287V38.2544H74.5938V9.4082H85.0543L92.1946 27.0669L99.6653 9.4082H109.601Z" fill="white"/>
<path fill-rule="evenodd" clip-rule="evenodd" d="M137.198 9.4082V14.7398H124.535V21.1366H135.578V25.9436H124.535V32.6586H137.458V38.2544H116.219V9.4082H137.198Z" fill="white"/>
<path fill-rule="evenodd" clip-rule="evenodd" d="M167.265 9.4082V38.2544H158.175L147.975 19.7532V38.2544H142.193V9.4082H151.548L161.484 27.5915V9.4082H167.265Z" fill="white"/>
</svg>
