<svg width="24" height="25" viewBox="0 0 24 25" fill="none" xmlns="http://www.w3.org/2000/svg">
<path fill-rule="evenodd" clip-rule="evenodd" d="M4 1.5C2.34315 1.5 1 2.84315 1 4.5V20.5C1 22.1569 2.34315 23.5 4 23.5H20C21.6569 23.5 23 22.1569 23 20.5V4.5C23 2.84315 21.6569 1.5 20 1.5H4ZM3.7938 11.708L18.8525 5.59863C19.5396 5.27158 20.2038 5.77288 19.9414 6.88002L17.3772 19.5939C17.198 20.4982 16.6808 20.7126 15.9605 20.2953L12.0544 17.2598L10.1766 19.181C10.1695 19.1881 10.1626 19.1952 10.1557 19.2023C9.94617 19.4154 9.77252 19.5921 9.39432 19.5921L9.66101 15.3994L9.65931 15.3985H9.66101L16.9084 8.51706C17.226 8.22039 16.8396 8.07473 16.4166 8.34549L7.47142 14.2833L3.60524 13.0144C2.77204 12.7455 2.7661 12.1423 3.7938 11.708Z" fill="white"/>
</svg>
