<svg width="24" height="25" viewBox="0 0 24 25" fill="none" xmlns="http://www.w3.org/2000/svg">
<path d="M16.125 12.5C16.125 11.3542 15.724 10.3802 14.9219 9.57812C14.1198 8.77604 13.1458 8.375 12 8.375C10.8542 8.375 9.88021 8.77604 9.07812 9.57812C8.27604 10.3802 7.875 11.3542 7.875 12.5C7.875 13.6458 8.27604 14.6198 9.07812 15.4219C9.88021 16.224 10.8542 16.625 12 16.625C13.1458 16.625 14.1198 16.224 14.9219 15.4219C15.724 14.6198 16.125 13.6458 16.125 12.5ZM1 11.125V20.75C1 21.5091 1.26855 22.1572 1.80566 22.6943C2.34277 23.2314 2.99089 23.5 3.75 23.5H20.25C21.0091 23.5 21.6572 23.2314 22.1943 22.6943C22.7314 22.1572 23 21.5091 23 20.75V4.25C23 3.49089 22.7314 2.84277 22.1943 2.30566C21.6572 1.76855 21.0091 1.5 20.25 1.5H3.75C2.99089 1.5 2.34277 1.76855 1.80566 2.30566C1.26855 2.84277 1 3.49089 1 4.25V8.375H6.5C7.14453 7.52995 7.94662 6.86035 8.90625 6.36621C9.86589 5.87207 10.8971 5.625 12 5.625C13.1029 5.625 14.1341 5.87207 15.0938 6.36621C16.0534 6.86035 16.8555 7.52995 17.5 8.375H23V11.125H18.7461C18.832 11.5833 18.875 12.0417 18.875 12.5C18.875 13.7461 18.5671 14.8955 17.9512 15.9482C17.3353 17.001 16.501 17.8353 15.4482 18.4512C14.3955 19.0671 13.2461 19.375 12 19.375C10.7539 19.375 9.60449 19.0671 8.55176 18.4512C7.49902 17.8353 6.66471 17.001 6.04883 15.9482C5.43294 14.8955 5.125 13.7461 5.125 12.5C5.125 12.0417 5.16797 11.5833 5.25391 11.125H1Z" fill="white"/>
</svg>
