<svg width="24" height="25" viewBox="0 0 24 25" fill="none" xmlns="http://www.w3.org/2000/svg">
<path d="M23 21.0556V3.94444C23 2.6 21.8963 1.5 20.5494 1.5H3.45056C2.045 1.5 1 2.54256 1 3.94444V21.0556C1 22.4587 2.045 23.5 3.45056 23.5H20.5494C21.198 23.499 21.8198 23.2414 22.279 22.7833C22.7382 22.3253 22.9974 21.7041 23 21.0556ZM18.336 14.4641C18.336 14.4641 19.7196 15.8293 20.0606 16.4624C20.0703 16.4759 20.074 16.4881 20.0777 16.493C20.2158 16.7252 20.2512 16.9086 20.1816 17.043C20.0667 17.2667 19.6756 17.3791 19.5423 17.3889H17.0991C16.928 17.3889 16.5736 17.3449 16.1433 17.0479C15.8133 16.8181 15.487 16.438 15.1692 16.0677C14.695 15.5177 14.2843 15.041 13.8712 15.041C13.8188 15.0409 13.7668 15.0496 13.7172 15.0667C13.4031 15.1669 13.0047 15.613 13.0047 16.8047C13.0047 17.1774 12.7113 17.3901 12.5036 17.3901H11.384C11.0027 17.3901 9.01656 17.2569 7.25778 15.4003C5.09933 13.127 3.16089 8.56689 3.14378 8.52656C3.02156 8.232 3.27456 8.07189 3.54956 8.07189H6.01844C6.34967 8.07189 6.456 8.27233 6.53178 8.452C6.61733 8.65611 6.94 9.47989 7.468 10.4063C8.32722 11.9133 8.85644 12.5269 9.27811 12.5269C9.35696 12.5264 9.43437 12.5058 9.503 12.467C10.0542 12.1627 9.95156 10.1973 9.92711 9.79156C9.92711 9.71456 9.92589 8.91278 9.64478 8.52778C9.44189 8.24911 9.09844 8.14278 8.89067 8.10244C8.97539 7.9857 9.08688 7.89098 9.21578 7.82622C9.59344 7.638 10.2742 7.61111 10.9513 7.61111H11.3278C12.0623 7.62089 12.253 7.66856 12.5182 7.73578C13.0548 7.86411 13.0658 8.21244 13.0181 9.398C13.0047 9.73533 12.99 10.1179 12.99 10.5664C12.99 10.663 12.9863 10.7693 12.9863 10.8793C12.9692 11.4856 12.9497 12.1712 13.3774 12.4523C13.4328 12.487 13.4967 12.5056 13.562 12.5061C13.7111 12.5061 14.1572 12.5061 15.366 10.432C15.8977 9.51655 16.3071 8.43611 16.3352 8.35544C16.3779 8.26823 16.4398 8.19177 16.5161 8.13178C16.5787 8.09926 16.6485 8.08288 16.719 8.08411H19.6218C19.9396 8.08411 20.1547 8.13178 20.195 8.25278C20.2647 8.44711 20.1816 9.03989 18.8554 10.8317L18.2651 11.6139C17.0624 13.1881 17.0624 13.2688 18.336 14.4641Z" fill="white"/>
</svg>
