<svg width="32" height="32" viewBox="0 0 32 32" fill="none" xmlns="http://www.w3.org/2000/svg">
<path d="M7.63914 24.4591L4.27114 29.6591L4.62954 31.3599L6.32554 30.9967L9.69194 25.7999C8.96803 25.4169 8.28087 24.968 7.63914 24.4591ZM21.8983 22.6431C21.9207 22.5967 21.9351 22.5455 21.9559 22.4959C22.0407 22.3087 22.1159 22.1215 22.1767 21.9247C22.1863 21.8895 22.1911 21.8543 22.2023 21.8223C22.2648 21.6073 22.3171 21.3895 22.3591 21.1695V21.1359C22.6711 19.2655 22.1271 17.1791 20.8823 15.2943L22.6583 12.5519C24.7047 12.8127 26.4743 12.2975 27.3255 10.9807C28.8023 8.70395 27.0055 4.91355 23.3175 2.51195C19.6263 0.108746 15.4407 0.00794542 13.9671 2.28155C13.1127 3.59995 13.3623 5.42875 14.4359 7.19835L12.6567 9.94075C10.4343 9.56795 8.31114 9.91515 6.73194 10.9647C6.72234 10.9679 6.71114 10.9711 6.70474 10.9775C6.52023 11.103 6.34288 11.2387 6.17354 11.3839C6.14634 11.4063 6.11434 11.4271 6.09194 11.4495C5.93833 11.5853 5.79351 11.7306 5.65834 11.8847C5.62634 11.9231 5.58154 11.9567 5.55114 11.9967C5.38073 12.1897 5.2256 12.3957 5.08714 12.6127C2.87274 16.0255 4.76234 21.1903 9.29994 24.1471C13.8407 27.1039 19.3159 26.7295 21.5255 23.3167C21.6647 23.1007 21.7927 22.8751 21.8983 22.6431ZM20.5943 6.71035C19.1751 5.78715 18.4823 4.33115 19.0503 3.45275C19.6167 2.57755 21.2279 2.61755 22.6439 3.54075C24.0663 4.46395 24.7527 5.92315 24.1879 6.79835C23.6231 7.67355 22.0151 7.63355 20.5943 6.71035Z" fill="#009FAC"/>
</svg>
